<svg width="716" height="402" viewBox="0 0 716 402" fill="none" xmlns="http://www.w3.org/2000/svg">
<path d="M549.587 -701L-301 254.166C-301 254.166 -165.283 375.024 -141.615 396.1C-106.48 427.387 -140.553 315.337 -110.137 278.847C-77.5839 239.794 -21.1478 267.869 9.01641 226.948C34.2501 192.715 6.61023 155.463 30.852 120.524C61.7601 75.9769 124.437 105.386 156.323 61.5304C182.329 25.7618 154.957 -13.2422 181.484 -48.6279C212.936 -90.584 272.177 -61.9312 303.629 -103.887C330.156 -139.273 302.047 -178.823 328.79 -214.046C360.069 -255.242 417.571 -227.199 449.606 -267.811C477.952 -303.748 446.622 -347.782 477.76 -381.33C507.731 -413.622 557.396 -383.51 583.944 -418.666C607.179 -449.436 575.51 -484.671 597.799 -516.129C624.758 -554.177 743.464 -528.35 708.972 -559.066L549.587 -701Z" fill="#FCE7F3"/>
</svg>
