<svg width="60" height="60" viewBox="0 0 60 60" fill="none" xmlns="http://www.w3.org/2000/svg">
<rect width="60" height="60" rx="30" transform="matrix(-1 0 0 1 60 0)" fill="#F6F6F6"/>
<path fill-rule="evenodd" clip-rule="evenodd" d="M33.2498 24.4088C34.4064 26.1444 35.4468 27.8818 36.0857 29.0212L37.6898 27.3556C38.6877 26.3016 38.6877 24.6514 37.6898 23.5974C37.2175 23.1019 36.5635 22.8205 35.879 22.8184H32.1463C32.5187 23.3292 32.8894 23.8622 33.2498 24.4088Z" stroke="#DD47A3" stroke-width="2" stroke-linecap="round" stroke-linejoin="round"/>
<path fill-rule="evenodd" clip-rule="evenodd" d="M24.4092 33.2491C26.1449 34.4056 27.8823 35.446 29.0217 36.0849L27.3561 37.689C26.3021 38.6869 24.6518 38.6869 23.5978 37.689C23.1022 37.2167 22.821 36.5627 22.8188 35.8782V32.1455C23.3296 32.5179 23.8626 32.8886 24.4092 33.2491Z" stroke="#DD47A3" stroke-width="2" stroke-linecap="round" stroke-linejoin="round"/>
<path d="M36.5905 32.4556C36.0902 31.9552 36.0904 31.1439 36.5908 30.6437C37.0913 30.1433 37.9025 30.1435 38.4028 30.6441L36.5905 32.4556ZM42.3644 34.6074C42.8647 35.1078 42.8645 35.919 42.364 36.4192C41.8636 36.9196 41.0523 36.9194 40.5521 36.4189L42.3644 34.6074ZM33.6195 35.4296C33.1193 34.9291 33.1197 34.1178 33.6203 33.6176C34.1208 33.1175 34.9321 33.1179 35.4322 33.6184L33.6195 35.4296ZM37.4105 35.5984C37.9106 36.0989 37.9103 36.9102 37.4097 37.4104C36.9091 37.9104 36.0979 37.9101 35.5977 37.4096L37.4105 35.5984ZM35.1807 28.1075C35.6816 27.6078 36.4929 27.6089 36.9926 28.1097C37.4924 28.6108 37.4914 29.4219 36.9904 29.9218L35.1807 28.1075ZM32.5459 32.5458L31.6388 31.6409L31.641 31.6386L32.5459 32.5458ZM29.9219 36.9903C29.422 37.4912 28.6109 37.4922 28.1099 36.9926C27.609 36.4927 27.6079 35.6816 28.1076 35.1805L29.9219 36.9903ZM33.2096 22.0937C33.6042 22.681 33.4481 23.477 32.8607 23.8717C32.2734 24.2664 31.4773 24.1102 31.0827 23.5229L33.2096 22.0937ZM29.0404 19.1678L29.8594 18.1825C29.8778 18.1979 29.8959 18.2138 29.9137 18.2302L29.0404 19.1678ZM17.7022 17.7021L16.4272 17.575C16.4877 16.9679 16.9679 16.4876 17.5751 16.4271L17.7022 17.7021ZM19.1679 29.042L18.2304 29.9153C18.2138 29.8975 18.1978 29.8792 18.1822 29.8606L19.1679 29.042ZM23.523 31.0843C24.1103 31.4789 24.2664 32.275 23.8718 32.8623C23.4772 33.4496 22.6811 33.6058 22.0938 33.2112L23.523 31.0843ZM30.6442 38.4026C30.1436 37.9024 30.1435 37.0911 30.6438 36.5908C31.144 36.0902 31.9553 36.09 32.4557 36.5904L30.6442 38.4026ZM36.419 40.552C36.9195 41.0522 36.9197 41.8635 36.4194 42.3639C35.9192 42.8644 35.1079 42.8646 34.6075 42.3642L36.419 40.552ZM21.1952 23.007C20.6948 22.5066 20.6948 21.6954 21.1952 21.195C21.6956 20.6947 22.5067 20.6947 23.0071 21.195L21.1952 23.007ZM25.1203 23.3082C25.6206 23.8086 25.6206 24.6199 25.1203 25.1202C24.6199 25.6206 23.8088 25.6206 23.3084 25.1202L25.1203 23.3082ZM38.4028 30.6441L42.3644 34.6074L40.5521 36.4189L36.5905 32.4556L38.4028 30.6441ZM35.4322 33.6184L37.4105 35.5984L35.5977 37.4096L33.6195 35.4296L35.4322 33.6184ZM36.9904 29.9218L33.4508 33.4529L31.641 31.6386L35.1807 28.1075L36.9904 29.9218ZM33.453 33.4507L29.9219 36.9903L28.1076 35.1805L31.6388 31.6409L33.453 33.4507ZM31.0827 23.5229C30.2448 22.276 29.2666 21.1293 28.1671 20.1054L29.9137 18.2302C31.1565 19.3877 32.2623 20.684 33.2096 22.0937L31.0827 23.5229ZM28.2214 20.1531C27.8714 19.8621 27.2695 19.5808 26.4022 19.3545C25.555 19.1335 24.5555 18.9903 23.5015 18.909C21.3927 18.7465 19.1942 18.841 17.8293 18.977L17.5751 16.4271C19.0562 16.2795 21.4087 16.1776 23.6984 16.3541C24.8437 16.4424 26.0054 16.6027 27.0491 16.875C28.0726 17.1421 29.0913 17.5441 29.8594 18.1825L28.2214 20.1531ZM18.9771 17.8291C18.8411 19.1942 18.7466 21.3925 18.9091 23.5016C18.9904 24.5557 19.1336 25.5554 19.3546 26.4028C19.581 27.2704 19.8624 27.8728 20.1536 28.2233L18.1822 29.8606C17.5442 29.0922 17.1422 28.0734 16.8752 27.0497C16.6029 26.0057 16.4426 24.8439 16.3543 23.6985C16.1777 21.4087 16.2796 19.056 16.4272 17.575L18.9771 17.8291ZM20.1055 28.1687C21.1294 29.2682 22.2761 30.2464 23.523 31.0843L22.0938 33.2112C20.6841 32.2639 19.3878 31.1581 18.2304 29.9153L20.1055 28.1687ZM32.4557 36.5904L36.419 40.552L34.6075 42.3642L30.6442 38.4026L32.4557 36.5904ZM23.0071 21.195L25.1203 23.3082L23.3084 25.1202L21.1952 23.007L23.0071 21.195Z" fill="#DD47A3"/>
</svg>
