<svg width="60" height="60" viewBox="0 0 60 60" fill="none" xmlns="http://www.w3.org/2000/svg">
<rect width="60" height="60" rx="30" fill="#F6F6F6"/>
<path d="M26.5719 29.6443C25.9723 29.9865 25.7637 30.75 26.1059 31.3495C26.4481 31.9492 27.2116 32.1577 27.8111 31.8155L26.5719 29.6443ZM38.0311 25.9822C38.6307 25.64 38.8394 24.8765 38.4971 24.2769C38.1549 23.6774 37.3914 23.4688 36.7919 23.811L38.0311 25.9822ZM27.5118 29.5217C26.8446 29.3447 26.1602 29.7423 25.9833 30.4097C25.8063 31.0768 26.2039 31.7613 26.8713 31.9382L27.5118 29.5217ZM30.9012 33.0065C31.5686 33.1833 32.2529 32.7858 32.4297 32.1185C32.6067 31.4512 32.2091 30.7668 31.5417 30.59L30.9012 33.0065ZM25.985 30.403C25.8045 31.0693 26.1982 31.7558 26.8646 31.9363C27.5309 32.117 28.2174 31.7232 28.3979 31.0568L25.985 30.403ZM29.4779 27.0718C29.6586 26.4056 29.2648 25.719 28.5984 25.5384C27.9323 25.3579 27.2456 25.7516 27.0651 26.4179L29.4779 27.0718ZM37.6859 23.6771C37.0124 23.5255 36.3436 23.9486 36.1921 24.6222C36.0404 25.2957 36.4636 25.9645 37.1371 26.1161L37.6859 23.6771ZM43.0621 27.4493C43.7356 27.601 44.4044 27.1778 44.5561 26.5043C44.7076 25.8308 44.2844 25.162 43.6109 25.0104L43.0621 27.4493ZM36.2126 24.5431C36.0172 25.2053 36.3959 25.9004 37.0581 26.0956C37.7202 26.2908 38.4152 25.9122 38.6106 25.25L36.2126 24.5431ZM40.3489 19.3534C40.5441 18.6912 40.1654 17.9961 39.5033 17.8009C38.8411 17.6057 38.1461 17.9843 37.9509 18.6465L40.3489 19.3534ZM41.5182 29.9997C41.5181 29.3093 40.9582 28.7498 40.2679 28.7498C39.5776 28.75 39.0181 29.3098 39.0182 30.0002L41.5182 29.9997ZM39.8666 33.0198L41.0724 33.349L41.0731 33.3468L39.8666 33.0198ZM21.2832 39.2548L20.5277 40.2508L20.5292 40.2518L21.2832 39.2548ZM33.7491 20.9825C34.3489 21.3244 35.1122 21.1154 35.4541 20.5156C35.7961 19.9159 35.5869 19.1525 34.9872 18.8106L33.7491 20.9825ZM37.0932 30.0002C37.0934 29.3098 36.5339 28.7502 35.8436 28.7498C35.1531 28.7497 34.5934 29.3092 34.5933 29.9997L37.0932 30.0002ZM31.5376 24.7709C32.1372 25.1128 32.9006 24.9037 33.2426 24.3039C33.5844 23.7041 33.3752 22.9408 32.7756 22.5989L31.5376 24.7709ZM27.8111 31.8155L38.0311 25.9822L36.7919 23.811L26.5719 29.6443L27.8111 31.8155ZM26.8713 31.9382L30.9012 33.0065L31.5417 30.59L27.5118 29.5217L26.8713 31.9382ZM28.3979 31.0568L29.4779 27.0718L27.0651 26.4179L25.985 30.403L28.3979 31.0568ZM37.1371 26.1161L43.0621 27.4493L43.6109 25.0104L37.6859 23.6771L37.1371 26.1161ZM38.6106 25.25L40.3489 19.3534L37.9509 18.6465L36.2126 24.5431L38.6106 25.25ZM39.0182 30.0002C39.0184 30.9097 38.8979 31.8152 38.6601 32.693L41.0731 33.3468C41.3687 32.2557 41.5184 31.1302 41.5182 29.9997L39.0182 30.0002ZM38.6606 32.6908C37.9299 35.3687 36.1624 37.6452 33.7489 39.0165L34.9841 41.19C37.9756 39.4902 40.1666 36.6683 41.0724 33.349L38.6606 32.6908ZM33.7489 39.0165C30.0447 41.1277 25.4377 40.8297 22.0372 38.258L20.5292 40.2518C24.7271 43.4267 30.4114 43.7962 34.9841 41.19L33.7489 39.0165ZM22.0386 38.259C20.9434 37.4282 20.0227 36.3897 19.3291 35.2027L17.1706 36.4638C18.0299 37.9345 19.1707 39.2213 20.5277 40.2508L22.0386 38.259ZM19.3291 35.2027C17.5698 32.1978 17.4468 28.5067 19.0031 25.392L16.7673 24.2732C14.8334 28.1438 14.9843 32.7298 17.1706 36.4638L19.3291 35.2027ZM19.0031 25.392C19.9309 23.5405 21.3862 22.0071 23.1863 20.9831L21.9501 18.8101C19.7203 20.0786 17.9167 21.9797 16.7673 24.2732L19.0031 25.392ZM23.1863 20.9831C26.4597 19.1171 30.4757 19.1165 33.7491 20.9825L34.9872 18.8106C30.9464 16.5071 25.9909 16.5066 21.9501 18.8101L23.1863 20.9831ZM34.5933 29.9997C34.5931 30.5263 34.5231 31.0508 34.3851 31.5592L36.7976 32.2153C36.9934 31.4938 37.0929 30.748 37.0932 30.0002L34.5933 29.9997ZM34.3851 31.5592C33.9616 33.1128 32.9369 34.4323 31.5371 35.2282L32.7726 37.4015C34.7507 36.277 36.1991 34.4107 36.7976 32.2153L34.3851 31.5592ZM31.5371 35.2282C29.3849 36.4547 26.7079 36.282 24.7321 34.7878L23.223 36.781C25.9962 38.878 29.7519 39.1228 32.7726 37.4015L31.5371 35.2282ZM24.7321 34.7878C24.0964 34.3058 23.5632 33.7043 23.1606 33.0157L21.0024 34.2775C21.5709 35.2498 22.3255 36.1005 23.223 36.781L24.7321 34.7878ZM23.1606 33.0157C22.142 31.2752 22.0708 29.1375 22.9715 27.3332L20.7354 26.2155C19.4574 28.7754 19.5573 31.808 21.0024 34.2775L23.1606 33.0157ZM22.9715 27.3332C23.51 26.2574 24.3548 25.3665 25.4002 24.7711L24.1628 22.5988C22.6879 23.4389 21.4951 24.6975 20.7354 26.2155L22.9715 27.3332ZM25.4002 24.7711C27.3023 23.687 29.6354 23.6868 31.5376 24.7709L32.7756 22.5989C30.1061 21.0774 26.8322 21.0772 24.1628 22.5988L25.4002 24.7711Z" fill="#DD47A3"/>
</svg>
